<svg width="115" height="100" viewBox="0 0 115 100" fill="none" xmlns="http://www.w3.org/2000/svg">
<g clip-path="url(#clip0_6_43)">
<path d="M77.3813 97.9816H9.77477C4.38505 97.9816 0 94.1685 0 89.4814V30.117C0 25.4301 4.38505 21.6172 9.77477 21.6172H42.1639C43.9399 21.6172 45.3796 22.8693 45.3796 24.4135C45.3796 25.9576 43.9399 27.2098 42.1639 27.2098H9.77477C7.93096 27.2098 6.43124 28.5143 6.43124 30.1172V89.482C6.43124 91.0851 7.93141 92.3894 9.77477 92.3894H77.3811C79.1568 92.3894 80.5968 93.6416 80.5968 95.1857C80.5968 96.7299 79.1573 97.9816 77.3813 97.9816Z" fill="#211E48"/>
<path d="M105.225 97.9816H93.1671C91.3913 97.9816 89.9513 96.7294 89.9513 95.1853C89.9513 93.6412 91.3913 92.389 93.1671 92.389H105.225C107.069 92.389 108.569 91.0845 108.569 89.4816V30.1169C108.569 28.5138 107.069 27.2095 105.225 27.2095H72.8363C71.0606 27.2095 69.6206 25.9574 69.6206 24.4132C69.6206 22.8691 71.0606 21.6169 72.8363 21.6169H105.225C110.615 21.6169 115 25.43 115 30.1167V89.4816C115 94.1685 110.615 97.9816 105.225 97.9816Z" fill="#211E48"/>
<path d="M60.839 48.8257H54.1618C48.929 48.8257 44.6716 45.1238 44.6716 40.5736V28.0828H44.2882C42.0302 28.0828 39.993 26.9951 38.9714 25.2441C37.9499 23.4931 38.1438 21.421 39.4775 19.8369L52.6895 4.14058C53.8078 2.81187 55.6065 2.01831 57.5001 2.01831C59.3938 2.01831 61.1923 2.81167 62.311 4.14038L75.523 19.8369C76.8565 21.4209 77.0508 23.4929 76.0291 25.2441C75.0075 26.9951 72.9701 28.0828 70.7123 28.0828H70.3287V40.5736C70.3285 45.124 66.0715 48.8257 60.839 48.8257ZM45.2131 22.4904H47.8866C49.6626 22.4904 51.1024 23.7425 51.1024 25.2867V40.5738C51.1024 42.0404 52.4747 43.2335 54.1613 43.2335H60.8385C62.5251 43.2335 63.8972 42.0404 63.8972 40.5738V25.2867C63.8972 23.7425 65.3372 22.4904 67.113 22.4904H69.7865L57.5001 7.8937L45.2131 22.4904Z" fill="#211E48"/>
<path d="M104.459 25.3291H67.113V40.5736C67.113 43.5869 64.3038 46.0295 60.8388 46.0295H54.1616C50.6963 46.0295 47.8874 43.5867 47.8874 40.5736V25.3291H10.5411C5.05166 25.3291 2.69821 31.3891 7.06304 34.283L54.0217 65.418C56.0757 66.7801 58.9233 66.7801 60.9774 65.418L107.936 34.2832C112.302 31.3891 109.948 25.3291 104.459 25.3291Z" fill="#B0DACC"/>
<path d="M57.4999 69.2355C55.5503 69.2355 53.6229 68.6695 52.0726 67.6418L5.11332 36.5066C2.00989 34.4492 0.81115 31.0418 2.0602 27.8261C3.30926 24.6105 6.63797 22.5326 10.5415 22.5326H47.8873C49.6632 22.5326 51.103 23.7847 51.103 25.3289V40.5734C51.103 42.04 52.4751 43.2334 54.1617 43.2334H60.8389C62.5255 43.2334 63.8976 42.04 63.8976 40.5734V25.3291C63.8976 23.7849 65.3376 22.5328 67.1134 22.5328H104.459C108.362 22.5328 111.691 24.6107 112.94 27.8263C114.189 31.042 112.99 34.4494 109.887 36.5068L62.9275 67.6418C61.3773 68.6697 59.4492 69.2355 57.4999 69.2355ZM10.5415 28.1254C8.86295 28.1254 8.28952 29.2662 8.15363 29.6158C8.01752 29.9654 7.67836 31.175 9.01321 32.0597L55.9721 63.1949C56.4148 63.4884 56.9433 63.6433 57.5001 63.6433C58.0567 63.6433 58.5854 63.4881 59.0281 63.1949L105.987 32.0597C107.322 31.1748 106.983 29.9654 106.847 29.6158C106.711 29.2662 106.137 28.1254 104.459 28.1254H70.3282V40.5738C70.3282 45.124 66.071 48.8261 60.8382 48.8261H54.161C48.9283 48.8261 44.6711 45.1242 44.6711 40.5738V28.1254H10.5415Z" fill="#211E48"/>
</g>
<defs>
<clipPath id="clip0_6_43">
<rect width="115" height="100" fill="white"/>
</clipPath>
</defs>
</svg>
