<svg width="115" height="100" viewBox="0 0 115 100" fill="none" xmlns="http://www.w3.org/2000/svg">
<path d="M99.5029 0H15.497C6.93867 0 0.000488281 6.03296 0.000488281 13.4752V86.5243C0.000488281 93.9666 6.93839 99.9995 15.497 99.9995H56.9283L56.9989 64.2651H46.3225C44.9351 64.2651 43.809 63.2895 43.8036 62.083L43.7524 50.5644C43.7471 49.3513 44.8766 48.3654 46.2716 48.3654H56.9286V37.2354C56.9286 24.3192 66.0003 17.2862 79.2507 17.2862H90.1237C91.5148 17.2862 92.6429 18.2669 92.6429 19.4768V29.1895C92.6429 30.3989 91.5157 31.3793 90.1251 31.3801L83.4525 31.3828C76.2465 31.3828 74.8511 34.3604 74.8511 38.7301V48.3657H90.6852C92.1939 48.3657 93.3645 49.5112 93.1867 50.8141L91.6167 62.3328C91.4664 63.4351 90.3915 64.2656 89.1152 64.2656H74.9218L74.8511 100H99.5034C108.062 100 115 93.967 115 86.525V13.4752C114.999 6.03296 108.061 0 99.5029 0Z" fill="#475993"/>
</svg>
