<svg width="206" height="31" viewBox="0 0 206 31" fill="none" xmlns="http://www.w3.org/2000/svg">
<path d="M10.9008 30.7526C8.69347 30.7526 6.77997 30.1004 5.1603 28.7961C3.55497 27.4774 2.35814 25.6714 1.5698 23.3781C0.78147 21.0704 0.52347 18.4402 0.795803 15.4876C1.03947 13.2659 1.54114 11.2306 2.3008 9.38156C3.06047 7.53256 4.04947 5.9344 5.2678 4.58706C6.48614 3.23973 7.8908 2.20056 9.4818 1.46956C11.0728 0.72423 12.8143 0.351562 14.7063 0.351562C17.5873 0.351562 19.8448 1.08256 21.4788 2.54456C23.1271 3.99223 24.1591 6.26406 24.5748 9.36006L17.7378 10.6716C17.4655 9.4819 16.9996 8.54306 16.3403 7.85506C15.681 7.15273 14.7995 6.80157 13.6958 6.80157C12.7211 6.80157 11.8038 7.1599 10.9438 7.87656C10.0838 8.5789 9.35997 9.58223 8.7723 10.8866C8.19897 12.1766 7.84064 13.7102 7.6973 15.4876C7.51097 17.2936 7.5898 18.8416 7.9338 20.1316C8.2778 21.4216 8.80814 22.4177 9.5248 23.1201C10.2558 23.8081 11.1015 24.1521 12.0618 24.1521C13.0078 24.1521 13.8606 23.9514 14.6203 23.5501C15.38 23.1344 16.0178 22.5826 16.5338 21.8946C17.0641 21.2066 17.444 20.4612 17.6733 19.6586C17.7306 19.3002 17.7736 18.9849 17.8023 18.7126C17.8453 18.4259 17.9313 18.0532 18.0603 17.5946L18.6838 18.9276L12.6423 18.9491L13.0508 14.4556H24.2093L22.7258 30.0001H17.5873C17.53 29.1544 17.4798 28.3087 17.4368 27.4631C17.4081 26.6174 17.358 25.7789 17.2863 24.9476L17.6518 24.8831C17.0068 26.7321 16.111 28.1726 14.9643 29.2046C13.832 30.2366 12.4775 30.7526 10.9008 30.7526Z" fill="#121213"/>
<path d="M28.7697 30.0001L31.5002 1.06106H37.8642L35.6712 23.8081H45.3892L44.8302 30.0001H28.7697Z" fill="#121213"/>
<path d="M60.1439 30.7526C56.5032 30.7526 53.8085 29.6489 52.0599 27.4416C50.3112 25.2199 49.6089 22.2529 49.9529 18.5406L51.6299 1.06106H57.9939L56.3169 18.5406C56.1305 20.5759 56.4674 22.0236 57.3274 22.8836C58.1874 23.7292 59.291 24.1521 60.6384 24.1521C62.0574 24.1521 63.2829 23.7292 64.3149 22.8836C65.3469 22.0236 65.956 20.5759 66.1424 18.5406L67.8194 1.06106H74.1834L72.6139 18.5406C72.3559 21.0059 71.7037 23.1559 70.6574 24.9906C69.611 26.8252 68.2064 28.2442 66.4434 29.2476C64.6804 30.2509 62.5805 30.7526 60.1439 30.7526Z" fill="#121213"/>
<path d="M77.4806 30.0001L80.2111 1.06106H90.4666C93.6916 1.06106 96.1569 1.88523 97.8626 3.53356C99.5826 5.1819 100.321 7.4179 100.077 10.2416C99.8334 12.1909 99.1884 13.8751 98.1421 15.2941C97.0958 16.6987 95.7198 17.7952 94.0141 18.5836L99.3891 30.0001H91.0256L87.3491 19.3361H84.7906L83.8446 30.0001H77.4806ZM85.1991 14.6921H88.4671C89.9578 14.6921 91.1116 14.3481 91.9286 13.6601C92.7599 12.9721 93.2258 12.0906 93.3261 11.0156C93.3978 9.9119 93.1684 9.00173 92.6381 8.28506C92.1078 7.55406 91.1904 7.18856 89.8861 7.18856H85.9946L85.1991 14.6921Z" fill="#121213"/>
<path d="M113.656 30.7526C111.448 30.7526 109.535 30.1004 107.915 28.7961C106.31 27.4774 105.113 25.6714 104.325 23.3781C103.536 21.0704 103.278 18.4402 103.551 15.4876C103.794 13.2659 104.296 11.2306 105.056 9.38156C105.815 7.53256 106.804 5.9344 108.023 4.58706C109.241 3.23973 110.646 2.20056 112.237 1.46956C113.828 0.72423 115.569 0.351562 117.461 0.351562C120.342 0.351562 122.6 1.08256 124.234 2.54456C125.882 3.99223 126.914 6.26406 127.33 9.36006L120.493 10.6716C120.22 9.4819 119.755 8.54306 119.095 7.85506C118.436 7.15273 117.554 6.80157 116.451 6.80157C115.476 6.80157 114.559 7.1599 113.699 7.87656C112.839 8.5789 112.115 9.58223 111.527 10.8866C110.954 12.1766 110.596 13.7102 110.452 15.4876C110.266 17.2936 110.345 18.8416 110.689 20.1316C111.033 21.4216 111.563 22.4177 112.28 23.1201C113.011 23.8081 113.856 24.1521 114.817 24.1521C115.763 24.1521 116.616 23.9514 117.375 23.5501C118.135 23.1344 118.773 22.5826 119.289 21.8946C119.819 21.2066 120.199 20.4612 120.428 19.6586C120.486 19.3002 120.529 18.9849 120.557 18.7126C120.6 18.4259 120.686 18.0532 120.815 17.5946L121.439 18.9276L115.397 18.9491L115.806 14.4556H126.964L125.481 30.0001H120.342C120.285 29.1544 120.235 28.3087 120.192 27.4631C120.163 26.6174 120.113 25.7789 120.041 24.9476L120.407 24.8831C119.762 26.7321 118.866 28.1726 117.719 29.2046C116.587 30.2366 115.232 30.7526 113.656 30.7526Z" fill="#121213"/>
<path d="M131.482 30.0001L134.212 1.06106H151.778L151.24 7.18856H139.996L139.501 12.4991H149.972L149.348 18.6911H138.878L138.383 23.8081H149.585L149.112 30.0001H131.482Z" fill="#121213"/>
<path d="M155.207 30.0001L157.938 1.06106H175.503L174.966 7.18856H163.721L163.227 12.4991H173.697L173.074 18.6911H162.603L162.109 23.8081H173.31L172.837 30.0001H155.207Z" fill="#121213"/>
<path d="M181.706 1.06106H188.113L187.146 11.2951L196.821 1.06106H205.571L192.843 14.1331L203.679 30.0001H195.38L188.006 18.9921L186.286 20.8626L185.383 30.0001H178.976L181.706 1.06106Z" fill="#121213"/>
</svg>
