<svg width="115" height="100" viewBox="0 0 115 100" fill="none" xmlns="http://www.w3.org/2000/svg">
<g clip-path="url(#clip0_7_107)">
<path d="M29.161 99.6463C22.3219 99.3759 18.6067 98.3862 16.1356 97.5481C12.8613 96.4395 10.5269 95.1199 8.06952 92.986C5.61209 90.8521 4.09115 88.8222 2.82313 85.975C1.8593 83.8262 0.721164 80.5956 0.410141 74.6486C0.0683568 68.22 0 66.2912 0 50.0045C0 33.7177 0.0751924 31.7918 0.406723 25.3574C0.717746 19.4103 1.86272 16.1857 2.81972 14.031C4.09457 11.1838 5.61551 9.15386 8.0661 7.014C10.5201 4.88008 12.8545 3.55455 16.1322 2.45193C18.6033 1.61381 22.3185 0.624127 29.1576 0.353672C36.5538 0.0594407 38.7754 0 57.4983 0C76.2281 0 78.4428 0.0653847 85.8424 0.353672C92.6815 0.624127 96.3899 1.61976 98.8678 2.45193C102.142 3.55455 104.476 4.88008 106.934 7.014C109.391 9.14792 110.905 11.1808 112.18 14.028C113.144 16.1768 114.282 19.4074 114.593 25.3544C114.932 31.7889 115 33.7147 115 50.0015C115 66.2823 114.932 68.2141 114.593 74.6486C114.282 80.5956 113.137 83.8262 112.18 85.975C110.905 88.8222 109.388 90.8521 106.934 92.986C104.48 95.1199 102.142 96.4395 98.8678 97.5481C96.3967 98.3862 92.6815 99.3759 85.8424 99.6463C78.4496 99.9406 76.2281 100 57.4983 100C38.7754 100 36.5538 99.9435 29.161 99.6463Z" fill="url(#paint0_radial_7_107)"/>
<path d="M29.161 99.6463C22.3219 99.3759 18.6067 98.3862 16.1356 97.5481C12.8613 96.4395 10.5269 95.1199 8.06952 92.986C5.61209 90.8521 4.09115 88.8222 2.82313 85.975C1.8593 83.8262 0.721164 80.5956 0.410141 74.6486C0.0683568 68.22 0 66.2912 0 50.0045C0 33.7177 0.0751924 31.7918 0.406723 25.3574C0.717746 19.4103 1.86272 16.1857 2.81972 14.031C4.09457 11.1838 5.61551 9.15386 8.0661 7.014C10.5201 4.88008 12.8545 3.55455 16.1322 2.45193C18.6033 1.61381 22.3185 0.624127 29.1576 0.353672C36.5538 0.0594407 38.7754 0 57.4983 0C76.2281 0 78.4428 0.0653847 85.8424 0.353672C92.6815 0.624127 96.3899 1.61976 98.8678 2.45193C102.142 3.55455 104.476 4.88008 106.934 7.014C109.391 9.14792 110.905 11.1808 112.18 14.028C113.144 16.1768 114.282 19.4074 114.593 25.3544C114.932 31.7889 115 33.7147 115 50.0015C115 66.2823 114.932 68.2141 114.593 74.6486C114.282 80.5956 113.137 83.8262 112.18 85.975C110.905 88.8222 109.388 90.8521 106.934 92.986C104.48 95.1199 102.142 96.4395 98.8678 97.5481C96.3967 98.3862 92.6815 99.3759 85.8424 99.6463C78.4496 99.9406 76.2281 100 57.4983 100C38.7754 100 36.5538 99.9435 29.161 99.6463Z" fill="url(#paint1_radial_7_107)"/>
<path d="M43.3808 50.213C43.3808 43.3741 49.7547 37.8286 57.6195 37.8286C65.4843 37.8286 71.8617 43.3741 71.8617 50.213C71.8617 57.052 65.4843 62.5975 57.6195 62.5975C49.7547 62.5975 43.3808 57.052 43.3808 50.213ZM35.6818 50.213C35.6818 60.7489 45.5033 69.2893 57.6195 69.2893C69.7358 69.2893 79.5573 60.7489 79.5573 50.213C79.5573 39.6772 69.7358 31.1367 57.6195 31.1367C45.5033 31.1367 35.6821 39.6766 35.6821 50.213H35.6818ZM75.2993 30.3804C75.2989 31.2621 75.5992 32.1241 76.1622 32.8574C76.7252 33.5907 77.5256 34.1624 78.4623 34.5002C79.3989 34.8379 80.4297 34.9265 81.4243 34.7549C82.4188 34.5832 83.3325 34.1589 84.0498 33.5357C84.7671 32.9125 85.2557 32.1183 85.454 31.2536C85.6522 30.3889 85.5511 29.4925 85.1634 28.6778C84.7757 27.863 84.1189 27.1665 83.2761 26.6764C82.4332 26.1862 81.4421 25.9244 80.4282 25.9241H80.4261C79.0669 25.9246 77.7636 26.3943 76.8024 27.2298C75.8411 28.0653 75.3005 29.1985 75.2993 30.3804ZM40.3594 80.4529C36.1941 80.2879 33.9301 79.6846 32.4256 79.1749C30.4309 78.4996 29.0077 77.6954 27.5114 76.396C26.0151 75.0967 25.0888 73.8603 24.3157 72.1258C23.7292 70.8181 23.0354 68.8488 22.846 65.2268C22.6389 61.3109 22.5976 60.1346 22.5976 50.2136C22.5976 40.2927 22.6423 39.1196 22.846 35.2004C23.0357 31.5784 23.7347 29.613 24.3157 28.3014C25.0923 26.5669 26.0171 25.3294 27.5114 24.0282C29.0057 22.7271 30.4275 21.9217 32.4256 21.2494C33.9294 20.7394 36.1941 20.1361 40.3594 19.9714C44.8628 19.7913 46.2155 19.7553 57.6195 19.7553C69.0235 19.7553 70.3776 19.7937 74.8848 19.972C79.0501 20.137 81.3103 20.7447 82.8186 21.25C84.8132 21.9222 86.2364 22.7295 87.7328 24.0288C89.2291 25.3282 90.1519 26.5675 90.9284 28.302C91.5149 29.6097 92.2088 31.579 92.3981 35.201C92.6052 39.1202 92.6466 40.2933 92.6466 50.2142C92.6466 60.1352 92.6052 61.3082 92.3981 65.2274C92.2084 68.8494 91.5112 70.8181 90.9284 72.1264C90.1519 73.8609 89.227 75.0984 87.7328 76.3966C86.2385 77.6948 84.8132 78.5002 82.8186 79.1755C81.3147 79.6855 79.0501 80.2888 74.8848 80.4534C70.3814 80.6336 69.0286 80.6695 57.6195 80.6695C46.2104 80.6695 44.8614 80.6336 40.3594 80.4534V80.4529ZM40.0057 13.2876C35.4575 13.4677 32.3497 14.0948 29.6356 15.0132C26.8265 15.9615 24.4453 17.2339 22.0675 19.2982C19.6897 21.3626 18.2302 23.4335 17.1396 25.8792C16.0835 28.2408 15.3623 30.9418 15.1552 34.8967C14.9447 38.8578 14.8965 40.1242 14.8965 50.213C14.8965 60.3019 14.9447 61.5683 15.1552 65.5294C15.3623 69.4846 16.0835 72.1853 17.1396 74.5468C18.2302 76.9895 19.69 79.0643 22.0675 81.1278C24.4449 83.1913 26.823 84.4618 29.6356 85.4129C32.3548 86.3312 35.4575 86.9583 40.0057 87.1384C44.5634 87.3185 46.0173 87.3634 57.6195 87.3634C69.2217 87.3634 70.6781 87.3215 75.2334 87.1384C79.7818 86.9583 82.8876 86.3312 85.6034 85.4129C88.4126 84.4618 90.7938 83.1922 93.1716 81.1278C95.5494 79.0634 97.0057 76.9895 98.0994 74.5468C99.1555 72.1853 99.8801 69.4843 100.084 65.5294C100.291 61.5653 100.339 60.3019 100.339 50.213C100.339 40.1242 100.291 38.8578 100.084 34.8967C99.8767 30.9415 99.1555 28.2393 98.0994 25.8792C97.0057 23.4365 95.5456 21.3659 93.1716 19.2982C90.7975 17.2306 88.4126 15.9615 85.6069 15.0132C82.8876 14.0948 79.7815 13.4647 75.2368 13.2876C70.6808 13.1066 69.2251 13.0626 57.6246 13.0626C46.0241 13.0626 44.5651 13.1045 40.0074 13.2876" fill="white"/>
</g>
<defs>
<radialGradient id="paint0_radial_7_107" cx="0" cy="0" r="1" gradientUnits="userSpaceOnUse" gradientTransform="translate(7.44268 97.8093) scale(146.007 126.963)">
<stop offset="0.09" stop-color="#FA8F21"/>
<stop offset="0.78" stop-color="#D82D7E"/>
</radialGradient>
<radialGradient id="paint1_radial_7_107" cx="0" cy="0" r="1" gradientUnits="userSpaceOnUse" gradientTransform="translate(79.6565 94.5983) scale(128.488 111.729)">
<stop offset="0.64" stop-color="#8C3AAA" stop-opacity="0"/>
<stop offset="1" stop-color="#8C3AAA"/>
</radialGradient>
<clipPath id="clip0_7_107">
<rect width="115" height="100" fill="white"/>
</clipPath>
</defs>
</svg>
