<svg width="115" height="100" viewBox="0 0 115 100" fill="none" xmlns="http://www.w3.org/2000/svg">
<g clip-path="url(#clip0_7_111)">
<path d="M112.394 11.5408C110.587 12.3917 108.73 13.11 106.832 13.6933C109.079 10.9943 110.792 7.81863 111.838 4.34361C112.072 3.56472 111.829 2.71213 111.226 2.20258C110.624 1.69278 109.788 1.63171 109.125 2.04895C105.094 4.58788 100.746 6.41259 96.1862 7.47941C91.5932 2.71285 85.3551 0 78.9062 0C65.2935 0 54.2188 11.7622 54.2188 26.2196C54.2188 27.3582 54.2866 28.4906 54.4209 29.6073C37.529 28.0321 21.8249 19.2139 11.0409 5.16423C10.6566 4.66351 10.0646 4.39346 9.45836 4.44523C8.85192 4.49556 8.30679 4.85888 8.00043 5.41734C5.81319 9.40335 4.6569 13.9624 4.6569 18.6011C4.6569 24.919 6.78058 30.9131 10.5322 35.5971C9.39143 35.1775 8.28456 34.6532 7.228 34.0303C6.66086 33.6949 5.96862 33.7001 5.40507 34.0432C4.84131 34.3865 4.48777 35.0175 4.47273 35.7074C4.47003 35.8235 4.47003 35.9397 4.47003 36.0575C4.47003 45.4879 9.2488 53.9783 16.5551 58.6057C15.9273 58.5392 15.3002 58.4426 14.6769 58.3161C14.0343 58.1856 13.3737 58.4249 12.9405 58.9454C12.5065 59.4655 12.3628 60.1905 12.5629 60.8524C15.2672 69.82 22.2298 76.4158 30.647 78.4268C23.6657 83.071 15.6823 85.5035 7.30144 85.5035C5.55264 85.5035 3.79396 85.3945 2.07278 85.1781C1.2177 85.0701 0.400125 85.6063 0.108807 86.4701C-0.18251 87.3342 0.126327 88.2975 0.853609 88.7927C11.6202 96.1247 24.0694 100 36.8548 100C61.9891 100 77.7126 87.4117 86.4766 76.8514C97.4054 63.6834 103.673 46.2541 103.673 29.0328C103.673 28.3133 103.663 27.5869 103.642 26.8627C107.954 23.4125 111.666 19.2368 114.687 14.4376C115.145 13.7088 115.096 12.7453 114.564 12.0744C114.034 11.4024 113.149 11.1854 112.394 11.5408Z" fill="#4990FA"/>
</g>
<defs>
<clipPath id="clip0_7_111">
<rect width="115" height="100" fill="white"/>
</clipPath>
</defs>
</svg>
